<svg xmlns="http://www.w3.org/2000/svg" width="54" height="10" fill="none"><g fill="#384564" fill-rule="evenodd" clip-rule="evenodd" opacity=".662"><path d="M3.526 2.55C3.91 1.629 4.642 0 5.009 0c.532 0 1.697 3.16 1.697 3.16s1.08.099 1.952.2c.463.054 1.29.137 1.341.406.011.058-.055.297-.176.463-.512.705-1.841 2.217-1.841 2.217s.073.722.138 1.512c.041.511.154 1.547.113 1.732-.044.204-.124.26-.207.292-.216.083-.719-.241-1.306-.538-.8-.405-1.698-.837-1.698-.837s-.593.327-1.296.646c-.75.341-1.51.904-1.828.706-.198-.124-.05-1.09.025-1.95.071-.81.133-1.55.133-1.55s-.44-.546-.953-1.13C.55 4.7-.126 4.02.02 3.77c.11-.19.614-.29 1.46-.4.899-.119 1.796-.202 1.796-.202s.098-.253.25-.617ZM14.526 2.55C14.91 1.629 15.642 0 16.009 0c.532 0 1.697 3.16 1.697 3.16s1.08.099 1.952.2c.463.054 1.29.137 1.341.406.011.058-.055.297-.176.463-.512.705-1.841 2.217-1.841 2.217s.073.722.138 1.512c.041.511.154 1.547.113 1.732-.044.204-.124.26-.207.292-.216.083-.719-.241-1.306-.538-.8-.405-1.698-.837-1.698-.837s-.593.327-1.296.646c-.75.341-1.51.904-1.828.706-.198-.124-.05-1.09.025-1.95.071-.81.133-1.55.133-1.55s-.44-.546-.953-1.13c-.553-.63-1.229-1.31-1.082-1.56.11-.19.613-.29 1.46-.4.898-.119 1.795-.202 1.795-.202s.098-.253.25-.617ZM25.526 2.55C25.91 1.629 26.642 0 27.009 0c.532 0 1.697 3.16 1.697 3.16s1.08.099 1.952.2c.463.054 1.29.137 1.341.406.011.058-.055.297-.176.463-.512.705-1.841 2.217-1.841 2.217s.073.722.138 1.512c.041.511.154 1.547.113 1.732-.044.204-.124.26-.207.292-.216.083-.719-.241-1.306-.538-.8-.405-1.698-.837-1.698-.837s-.593.327-1.296.646c-.75.341-1.51.904-1.828.706-.198-.124-.05-1.09.025-1.95.071-.81.133-1.55.133-1.55s-.44-.546-.953-1.13c-.554-.63-1.229-1.31-1.083-1.56.11-.19.614-.29 1.46-.4.899-.119 1.796-.202 1.796-.202s.098-.253.25-.617ZM36.526 2.55C36.91 1.629 37.642 0 38.009 0c.532 0 1.697 3.16 1.697 3.16s1.08.099 1.952.2c.463.054 1.29.137 1.341.406.011.058-.055.297-.176.463-.512.705-1.841 2.217-1.841 2.217s.073.722.138 1.512c.041.511.154 1.547.113 1.732-.044.204-.124.26-.207.292-.216.083-.719-.241-1.306-.538-.8-.405-1.698-.837-1.698-.837s-.593.327-1.296.646c-.75.341-1.51.904-1.828.706-.198-.124-.05-1.09.025-1.95.071-.81.133-1.55.133-1.55s-.44-.546-.953-1.13c-.553-.63-1.229-1.31-1.083-1.56.11-.19.614-.29 1.46-.4.899-.119 1.796-.202 1.796-.202s.098-.253.25-.617ZM47.526 2.55C47.91 1.629 48.642 0 49.009 0c.532 0 1.697 3.16 1.697 3.16s1.08.099 1.952.2c.463.054 1.29.137 1.341.406.011.058-.055.297-.176.463-.512.705-1.841 2.217-1.841 2.217s.073.722.138 1.512c.041.511.154 1.547.113 1.732-.044.204-.124.26-.207.292-.216.083-.719-.241-1.306-.538-.8-.405-1.698-.837-1.698-.837s-.593.327-1.296.646c-.75.341-1.51.904-1.828.706-.198-.124-.05-1.09.025-1.95.071-.81.133-1.55.133-1.55s-.44-.546-.953-1.13c-.553-.63-1.229-1.31-1.083-1.56.11-.19.614-.29 1.46-.4.899-.119 1.796-.202 1.796-.202s.098-.253.25-.617Z"/></g></svg>