<svg xmlns="http://www.w3.org/2000/svg" width="96" height="18" fill="none"><path fill="#38415D" fill-rule="evenodd" d="M6.699 4.59C7.429 2.93 8.82 0 9.516 0c1.011 0 3.226 5.686 3.226 5.686s2.05.18 3.707.362c.88.097 2.45.245 2.549.73.021.105-.105.534-.335.833-.973 1.27-3.498 3.991-3.498 3.991s.139 1.3.262 2.723c.08.92.293 2.784.216 3.117-.084.366-.236.466-.393.524-.412.15-1.367-.433-2.482-.966-1.52-.73-3.227-1.508-3.227-1.508s-1.126.588-2.461 1.163c-1.426.614-2.87 1.627-3.474 1.27-.376-.223-.097-1.96.048-3.508.135-1.458.252-2.791.252-2.791s-.836-.982-1.81-2.033C1.044 8.458-.24 7.233.039 6.783c.21-.34 1.166-.522 2.773-.72C4.52 5.85 6.224 5.7 6.224 5.7s.186-.456.475-1.11Z" clip-rule="evenodd"/><path fill="#38415D" fill-rule="evenodd" d="M25.699 4.59C26.429 2.93 27.82 0 28.516 0c1.011 0 3.226 5.686 3.226 5.686s2.05.18 3.707.362c.88.097 2.45.245 2.549.73.021.105-.105.534-.335.833-.973 1.27-3.498 3.991-3.498 3.991s.139 1.3.262 2.723c.08.92.293 2.784.216 3.117-.084.366-.236.466-.393.524-.412.15-1.367-.433-2.482-.966-1.52-.73-3.227-1.508-3.227-1.508s-1.126.588-2.461 1.163c-1.426.614-2.87 1.627-3.473 1.27-.377-.223-.098-1.96.047-3.508.135-1.458.252-2.791.252-2.791s-.836-.982-1.81-2.033c-1.052-1.135-2.335-2.36-2.057-2.81.21-.34 1.166-.522 2.773-.72 1.707-.213 3.412-.363 3.412-.363s.186-.456.475-1.11Z" clip-rule="evenodd"/><path fill="#38415D" fill-rule="evenodd" d="M44.699 4.59C45.429 2.93 46.82 0 47.516 0c1.011 0 3.226 5.686 3.226 5.686s2.05.18 3.707.362c.88.097 2.45.245 2.549.73.021.105-.105.534-.335.833-.973 1.27-3.498 3.991-3.498 3.991s.139 1.3.262 2.723c.08.92.293 2.784.216 3.117-.084.366-.236.466-.393.524-.412.15-1.367-.433-2.482-.966a216.605 216.605 0 0 0-3.227-1.508s-1.126.588-2.461 1.163c-1.426.614-2.87 1.627-3.474 1.27-.376-.223-.097-1.96.048-3.508.135-1.458.252-2.791.252-2.791s-.836-.982-1.81-2.033c-1.052-1.135-2.335-2.36-2.057-2.81.21-.34 1.166-.522 2.773-.72 1.707-.213 3.412-.363 3.412-.363s.186-.456.475-1.11ZM64.699 4.59C65.429 2.93 66.82 0 67.516 0c1.011 0 3.226 5.686 3.226 5.686s2.05.18 3.707.362c.88.097 2.45.245 2.549.73.021.105-.105.534-.335.833-.973 1.27-3.498 3.991-3.498 3.991s.139 1.3.262 2.723c.08.92.293 2.784.216 3.117-.084.366-.236.466-.393.524-.412.15-1.367-.433-2.482-.966a216.605 216.605 0 0 0-3.227-1.508s-1.126.588-2.461 1.163c-1.426.614-2.87 1.627-3.474 1.27-.376-.223-.097-1.96.048-3.508.135-1.458.252-2.791.252-2.791s-.836-.982-1.81-2.033c-1.052-1.135-2.335-2.36-2.057-2.81.21-.34 1.166-.522 2.773-.72 1.707-.213 3.412-.363 3.412-.363s.186-.456.475-1.11Z" clip-rule="evenodd"/><path fill="#38415D" fill-rule="evenodd" d="M83.699 4.59C84.429 2.93 85.82 0 86.516 0c1.011 0 3.226 5.686 3.226 5.686s2.05.18 3.707.362c.88.097 2.45.245 2.549.73.021.105-.105.534-.335.833-.973 1.27-3.498 3.991-3.498 3.991s.139 1.3.262 2.723c.08.92.293 2.784.216 3.117-.084.366-.236.466-.393.524-.412.15-1.367-.433-2.482-.966a216.605 216.605 0 0 0-3.227-1.508s-1.126.588-2.461 1.163c-1.426.614-2.87 1.627-3.474 1.27-.376-.223-.097-1.96.048-3.508.135-1.458.252-2.791.252-2.791s-.836-.982-1.81-2.033c-1.052-1.135-2.335-2.36-2.057-2.81.21-.34 1.166-.522 2.773-.72 1.707-.213 3.412-.363 3.412-.363s.186-.456.475-1.11Z" clip-rule="evenodd"/></svg>