<svg xmlns="http://www.w3.org/2000/svg" width="18" height="20" fill="none"><path fill="#38415D" fill-rule="evenodd" d="m13.04 14.91-7.13-4.167A3.3 3.3 0 0 0 6 10.04a3.3 3.3 0 0 0-.09-.703l7.05-4.126a2.98 2.98 0 0 0 2.04.813c1.66 0 3-1.345 3-3.012A3.002 3.002 0 0 0 15 0c-1.66 0-3 1.345-3 3.012 0 .241.04.472.09.703L5.04 7.84A2.98 2.98 0 0 0 3 7.028c-1.66 0-3 1.345-3 3.012a3.002 3.002 0 0 0 3 3.012c.79 0 1.5-.311 2.04-.813l7.12 4.177c-.05.21-.08.431-.08.652A2.93 2.93 0 0 0 15 20a2.93 2.93 0 0 0 2.92-2.932A2.93 2.93 0 0 0 15 14.136c-.76 0-1.44.302-1.96.774Z" clip-rule="evenodd" opacity=".8"/></svg>