<svg aria-hidden="true" style="position: absolute; width: 0; height: 0; overflow: hidden;" version="1.1" xmlns="http://www.w3.org/2000/svg" xmlns:xlink="http://www.w3.org/1999/xlink">
<defs>
<symbol id="icon-AddressCircle1" viewBox="0 0 24 32">
<path d="M24.031 15.264c0 9.243-7.493 16.736-16.736 16.736s-16.736-7.493-16.736-16.736c0-9.243 7.493-16.736 16.736-16.736s16.736 7.493 16.736 16.736z"></path>
</symbol>
<symbol id="icon-AddressCircle2" viewBox="0 0 24 32">
<path d="M24.031 15.264c0 9.243-7.493 16.736-16.736 16.736s-16.736-7.493-16.736-16.736c0-9.243 7.493-16.736 16.736-16.736s16.736 7.493 16.736 16.736z"></path>
</symbol>
<symbol id="icon-ArrowLeft" viewBox="0 0 32 32">
<path  d="M18.662 2.69c-1.47-1.47-3.854-1.47-5.324 0l-10.648 10.648c-1.47 1.47-1.47 3.854 0 5.324l10.648 10.648c1.47 1.47 3.854 1.47 5.324 0s1.47-3.854 0-5.324l-7.986-7.986 7.986-7.986c1.47-1.47 1.47-3.854 0-5.324z"></path>
<path fill="#7d859c" style="fill: var(--color2, #7d859c)" opacity="0.497652" d="M0 0h25.412v32h-25.412v-32z"></path>
</symbol>
<symbol id="icon-ArrowRight" viewBox="0 0 32 32">
<path  d="M13.338 2.69c1.47-1.47 3.854-1.47 5.324 0l10.648 10.648c1.47 1.47 1.47 3.854 0 5.324l-10.648 10.648c-1.47 1.47-3.854 1.47-5.324 0s-1.47-3.854 0-5.324l7.986-7.986-7.986-7.986c-1.47-1.47-1.47-3.854 0-5.324z"></path>
<path fill="#7d859c" style="fill: var(--color2, #7d859c)" opacity="0.498465" d="M32 0h-25.412v32h25.412v-32z"></path>
</symbol>
<symbol id="icon-returnArrow" viewBox="0 0 18 32">
<path fill="#384564" style="fill: var(--color3, #384564)" d="M17.174 0.713c0.83 0.914 0.796 2.362-0.076 3.231l-11.103 11.52c-0.286 0.29-0.286 0.777 0 1.067l11.109 11.52c0.87 0.868 0.901 2.316 0.070 3.23-0.831 0.93-2.21 0.96-3.078 0.076l-13.401-13.638c-0.898-0.914-0.93-2.408-0.071-3.352l13.472-13.73c0.87-0.884 2.249-0.838 3.078 0.076z"></path>
</symbol>
<symbol id="icon-saveBookmark" viewBox="0 0 33 32">
<path fill="none" stroke-linejoin="miter" stroke-linecap="butt" stroke-miterlimit="4" stroke-width="2" d="M8.5 8c0-1.473 1.194-2.667 2.667-2.667h10.667c1.473 0 2.667 1.194 2.667 2.667v15.993c0 1.166-1.391 1.77-2.243 0.975l-4.847-4.525c-0.512-0.478-1.308-0.478-1.82 0l-4.847 4.525c-0.852 0.796-2.243 0.191-2.243-0.975v-15.993z"></path>
</symbol>
<symbol id="icon-saveStar" viewBox="0 0 34 32">
<path fill="none" opacity="0.8" stroke="#3a4562" style="stroke: var(--color1, #3a4562)" stroke-linejoin="miter" stroke-linecap="butt" stroke-miterlimit="4" stroke-width="3.2" d="M20.796 10.497l0.362 0.926 1.591 0.14c0.38 0.034 0.916 0.083 1.543 0.142 1.255 0.118 2.867 0.274 4.303 0.433l0 0c0.071 0.008 0.144 0.016 0.218 0.024 0.759 0.083 1.634 0.178 2.366 0.334 0.012 0.002 0.023 0.005 0.035 0.007-0.834 1.057-2.219 2.633-3.458 4.009-0.654 0.726-1.255 1.384-1.693 1.861-0.219 0.238-0.397 0.431-0.52 0.564l-0.19 0.205-0.497 0.534 0.078 0.727 0 0.005 0.002 0.019 0.008 0.075 0.030 0.288c0.026 0.249 0.063 0.608 0.106 1.044 0.087 0.872 0.201 2.051 0.308 3.282l-4.592-14.617zM20.796 10.497l-0-0.001-0.002-0.004-0.008-0.019-0.031-0.079c-0.028-0.070-0.069-0.174-0.122-0.306-0.107-0.265-0.262-0.645-0.454-1.102-0.385-0.915-0.913-2.129-1.492-3.336-0.585-1.219-1.198-2.382-1.75-3.22-0.102-0.154-0.196-0.29-0.283-0.407-0.309 0.416-0.668 0.99-1.054 1.678-0.882 1.571-1.785 3.516-2.419 4.949-0.248 0.561-0.452 1.037-0.594 1.372-0.071 0.167-0.126 0.299-0.163 0.389l-0.042 0.101-0.013 0.032-0 0-0.369 0.903-1.102 0.097c-0.086 0.008-0.213 0.019-0.374 0.034-0.323 0.030-0.786 0.074-1.341 0.129-1.112 0.111-2.59 0.267-4.066 0.45l-0.001 0c-1.323 0.163-2.321 0.312-3.032 0.473 0.045 0.056 0.092 0.114 0.143 0.176 0.477 0.574 1.071 1.2 1.714 1.877 0.291 0.307 0.593 0.625 0.898 0.953l15.959-5.14zM6.833 20.27l1.216-1.040-0.001-0.001-0.004-0.004-0.013-0.016-0.051-0.060c-0.044-0.052-0.109-0.127-0.193-0.223-0.166-0.192-0.405-0.467-0.698-0.799-0.585-0.664-1.386-1.561-2.251-2.49l1.995 4.633zM6.833 20.27l1.594 0.141 0.059-0.669-0.437-0.511-1.216 1.040zM6.833 20.27l1.594 0.141M6.833 20.27l1.594 0.141M17.351 25.554l0.001 0 0.002 0.001 0.007 0.003 0.503 0.23c0.323 0.148 0.781 0.358 1.322 0.608 1.081 0.5 2.499 1.16 3.836 1.8 0 0 0.001 0 0.001 0l-0.69 1.443c0.431 0.206 0.848 0.415 1.244 0.615l-6.225-4.7zM17.351 25.554l-0.71-0.323M17.351 25.554l-0.71-0.323M16.641 25.231l-0.692 0.361M16.641 25.231l-0.692 0.361M15.949 25.592h-0M15.949 25.592h-0M15.949 25.592h-0M15.949 25.592h-0M15.949 25.592l-0 0M15.949 25.592l-0 0M15.949 25.592l-0 0-0.003 0.002-0.015 0.008-0.062 0.032c-0.056 0.028-0.139 0.071-0.246 0.125-0.215 0.109-0.527 0.265-0.911 0.452-0.769 0.375-1.821 0.871-2.959 1.359-0.674 0.289-1.339 0.62-1.946 0.928-0.109 0.055-0.216 0.11-0.32 0.163-0.493 0.251-0.937 0.476-1.352 0.669-0.206 0.095-0.388 0.174-0.549 0.238 0.004-0.124 0.011-0.259 0.020-0.406 0.043-0.685 0.124-1.442 0.212-2.256 0.056-0.517 0.114-1.057 0.167-1.618l0-0.001M15.949 25.592l-7.965-0.306M7.984 25.286c0.119-1.274 0.229-2.493 0.31-3.393M7.984 25.286l0.31-3.393M8.294 21.894c0.040-0.45 0.074-0.821 0.097-1.079M8.294 21.894l0.097-1.079M8.391 20.815l0.027-0.299M8.391 20.815l0.027-0.299M8.417 20.516l0.007-0.078M8.417 20.516l0.007-0.078M8.424 20.438l0.002-0.020M8.424 20.438l0.002-0.020M8.426 20.418l0-0.005M8.426 20.418l0-0.005M8.426 20.412l0-0.001M8.426 20.412l0-0.001M8.426 20.411l0-0M8.426 20.411l0-0M8.426 20.411l0-0M8.426 20.411l0-0M32.056 12.77c-0.002 0-0.016-0.007-0.039-0.024 0.029 0.015 0.041 0.024 0.039 0.024zM1.558 11.837c0.002 0.001 0.010 0.018 0.018 0.049-0.016-0.034-0.020-0.050-0.018-0.049zM1.224 12.899c-0.008 0.006-0.013 0.008-0.013 0.008s0.004-0.003 0.013-0.008zM17.142 1.471c0 0-0.006 0.005-0.017 0.012 0.012-0.009 0.017-0.012 0.017-0.012zM16.192 1.493c-0.019-0.012-0.029-0.020-0.029-0.021s0.010 0.005 0.029 0.021zM26.448 29.771c0 0-0.006 0-0.018-0.002 0.012 0.001 0.018 0.002 0.018 0.002zM25.68 28.215c0.044 0.502 0.078 0.959 0.096 1.324l-0.387-4.425c0-0-0-0-0-0.001 0.033 0.38 0.078 0.848 0.126 1.339l0.012 0.122c0.052 0.54 0.107 1.107 0.153 1.64zM6.841 29.784c0-0 0.005-0 0.013 0-0.009 0-0.013 0-0.013 0z"></path>
</symbol>
<symbol id="icon-share" viewBox="0 0 33 32">
<path fill="#70778b" style="fill: var(--color4, #70778b)" d="M20.54 20.91l-7.13-4.167c0.050-0.231 0.090-0.462 0.090-0.703s-0.040-0.472-0.090-0.703l7.050-4.127c0.54 0.502 1.25 0.813 2.040 0.813 1.66 0 3-1.345 3-3.012s-1.34-3.012-3-3.012c-1.66 0-3 1.345-3 3.012 0 0.241 0.040 0.472 0.090 0.703l-7.050 4.127c-0.54-0.502-1.25-0.813-2.040-0.813-1.66 0-3 1.345-3 3.012s1.34 3.012 3 3.012c0.79 0 1.5-0.311 2.040-0.813l7.12 4.177c-0.050 0.211-0.080 0.432-0.080 0.653 0 1.616 1.31 2.932 2.92 2.932s2.92-1.315 2.92-2.932c0-1.616-1.31-2.932-2.92-2.932-0.76 0-1.44 0.301-1.96 0.773z"></path>
</symbol>
<symbol id="icon-ratingStar" viewBox="0 0 32 32">
<path fill="#384564" style="fill: var(--color3, #384564)" d="M11.283 8.16c1.229-2.947 3.571-8.16 4.746-8.16 1.702 0 5.43 10.112 5.43 10.112s3.456 0.317 6.246 0.64c1.482 0.173 4.128 0.438 4.291 1.299 0.035 0.186-0.176 0.95-0.563 1.482-1.638 2.256-5.891 7.094-5.891 7.094s0.234 2.31 0.442 4.838c0.131 1.635 0.493 4.95 0.362 5.542-0.141 0.653-0.397 0.832-0.662 0.934-0.691 0.266-2.301-0.771-4.179-1.722-2.56-1.296-5.434-2.678-5.434-2.678s-1.898 1.046-4.147 2.067c-2.4 1.091-4.832 2.893-5.85 2.259-0.634-0.397-0.16-3.488 0.080-6.24 0.227-2.592 0.426-4.96 0.426-4.96s-1.408-1.747-3.050-3.616c-1.77-2.013-3.933-4.189-3.466-4.989 0.352-0.608 1.965-0.928 4.672-1.28 2.877-0.381 5.747-0.646 5.747-0.646s0.314-0.81 0.8-1.974z"></path>
</symbol>
<symbol id="icon-rating" viewBox="0 0 173 32">
<path fill="#384564" style="fill: var(--color3, #384564)" opacity="0.662" d="M11.283 8.16c1.229-2.947 3.571-8.16 4.746-8.16 1.702 0 5.43 10.112 5.43 10.112s3.456 0.317 6.246 0.64c1.482 0.173 4.128 0.438 4.291 1.299 0.035 0.186-0.176 0.95-0.563 1.482-1.638 2.256-5.891 7.094-5.891 7.094s0.234 2.31 0.442 4.838c0.131 1.635 0.493 4.95 0.362 5.542-0.141 0.653-0.397 0.832-0.662 0.934-0.691 0.266-2.301-0.771-4.179-1.722-2.56-1.296-5.434-2.678-5.434-2.678s-1.898 1.046-4.147 2.067c-2.4 1.091-4.832 2.893-5.85 2.259-0.634-0.397-0.16-3.488 0.080-6.24 0.227-2.592 0.426-4.96 0.426-4.96s-1.408-1.747-3.050-3.616c-1.77-2.013-3.933-4.189-3.466-4.989 0.352-0.608 1.965-0.928 4.672-1.28 1.067-0.164 3.039-0.393 5.021-0.588l0.726-0.058s0.314-0.81 0.8-1.974zM46.483 8.16c1.229-2.947 3.571-8.16 4.746-8.16 1.702 0 5.43 10.112 5.43 10.112s3.456 0.317 6.246 0.64c1.482 0.173 4.128 0.438 4.291 1.299 0.035 0.186-0.176 0.95-0.563 1.482-1.638 2.256-5.891 7.094-5.891 7.094s0.234 2.31 0.442 4.838c0.131 1.635 0.493 4.95 0.362 5.542-0.141 0.653-0.397 0.832-0.662 0.934-0.691 0.266-2.301-0.771-4.179-1.722-2.56-1.296-5.434-2.678-5.434-2.678s-1.898 1.046-4.147 2.067c-2.4 1.091-4.832 2.893-5.85 2.259-0.634-0.397-0.16-3.488 0.080-6.24 0.227-2.592 0.426-4.96 0.426-4.96s-1.408-1.747-3.050-3.616c-1.77-2.016-3.933-4.192-3.462-4.992 0.352-0.608 1.962-0.928 4.672-1.28 2.874-0.381 5.744-0.646 5.744-0.646s0.314-0.81 0.8-1.974zM81.683 8.16c1.229-2.947 3.571-8.16 4.746-8.16 1.702 0 5.43 10.112 5.43 10.112s3.456 0.317 6.246 0.64c1.482 0.173 4.128 0.438 4.291 1.299 0.035 0.186-0.176 0.95-0.563 1.482-1.638 2.256-5.891 7.094-5.891 7.094s0.234 2.31 0.442 4.838c0.131 1.635 0.493 4.95 0.362 5.542-0.141 0.653-0.397 0.832-0.662 0.934-0.691 0.266-2.301-0.771-4.179-1.722-2.56-1.296-5.434-2.678-5.434-2.678s-1.898 1.046-4.147 2.067c-2.4 1.091-4.832 2.893-5.85 2.259-0.634-0.397-0.16-3.488 0.080-6.24 0.227-2.592 0.426-4.96 0.426-4.96s-1.408-1.747-3.050-3.616c-1.773-2.016-3.933-4.192-3.466-4.992 0.352-0.608 1.965-0.928 4.672-1.28 1.067-0.164 3.039-0.393 5.021-0.588l0.726-0.058s0.314-0.81 0.8-1.974zM116.883 8.16c1.229-2.947 3.571-8.16 4.746-8.16 1.702 0 5.43 10.112 5.43 10.112s3.456 0.317 6.246 0.64c1.482 0.173 4.128 0.438 4.291 1.299 0.035 0.186-0.176 0.95-0.563 1.482-1.638 2.256-5.891 7.094-5.891 7.094s0.234 2.31 0.442 4.838c0.131 1.635 0.493 4.95 0.362 5.542-0.141 0.653-0.397 0.832-0.662 0.934-0.691 0.266-2.301-0.771-4.179-1.722-2.56-1.296-5.434-2.678-5.434-2.678s-1.898 1.046-4.147 2.067c-2.4 1.091-4.832 2.893-5.85 2.259-0.634-0.397-0.16-3.488 0.080-6.24 0.227-2.592 0.426-4.96 0.426-4.96s-1.408-1.747-3.050-3.616c-1.77-2.016-3.933-4.192-3.466-4.992 0.352-0.608 1.965-0.928 4.672-1.28 2.877-0.381 5.747-0.646 5.747-0.646s0.314-0.81 0.8-1.974zM152.083 8.16c1.229-2.947 3.571-8.16 4.746-8.16 1.702 0 5.43 10.112 5.43 10.112s3.456 0.317 6.246 0.64c1.482 0.173 4.128 0.438 4.291 1.299 0.035 0.186-0.176 0.95-0.563 1.482-1.638 2.256-5.891 7.094-5.891 7.094s0.234 2.31 0.442 4.838c0.131 1.635 0.493 4.95 0.362 5.542-0.141 0.653-0.397 0.832-0.662 0.934-0.691 0.266-2.301-0.771-4.179-1.722-2.56-1.296-5.434-2.678-5.434-2.678s-1.898 1.046-4.147 2.067c-2.4 1.091-4.832 2.893-5.85 2.259-0.634-0.397-0.16-3.488 0.080-6.24 0.227-2.592 0.426-4.96 0.426-4.96s-1.408-1.747-3.050-3.616c-1.77-2.016-3.933-4.192-3.466-4.992 0.352-0.608 1.965-0.928 4.672-1.28 2.877-0.381 5.747-0.646 5.747-0.646s0.314-0.81 0.8-1.974z"></path>
</symbol>
<symbol id="icon-locationAddress" viewBox="0 0 22 32">
<path fill="#fff" style="fill: var(--color5, #fff)" opacity="0.3731900000000001" d="M21.895 10.695c0-5.44-4.901-9.853-10.947-9.853s-10.947 4.413-10.947 9.853c0 3.466 3.331 9.849 9.996 19.146l0.952 1.317 1.411-1.96 0.472-0.665c6.041-8.591 9.064-14.536 9.064-17.837zM5.474 11.385c0-2.91 2.451-5.272 5.474-5.272s5.474 2.361 5.474 5.272c0 2.914-2.451 5.273-5.474 5.273s-5.474-2.36-5.474-5.272z"></path>
</symbol>
<symbol id="icon-locationMap" viewBox="0 0 23 32">
<path fill="#d8d8d8" style="fill: var(--color6, #d8d8d8)" d="M23.111 10.4c0-5.744-5.173-10.4-11.556-10.4s-11.556 4.656-11.556 10.4c0 3.659 3.517 10.396 10.551 20.211l1.004 1.389 1.49-2.069 0.497-0.702c6.38-9.068 9.569-15.344 9.569-18.828zM5.778 11.131c0-3.074 2.587-5.566 5.778-5.566s5.778 2.492 5.778 5.564c0 3.074-2.587 5.566-5.778 5.566s-5.778-2.492-5.778-5.565z"></path>
</symbol>
</defs>
</svg>
